<svg width="17" height="17" viewBox="0 0 17 17" fill="none" xmlns="http://www.w3.org/2000/svg">
<path d="M15.75 0.0415039C16.0704 0.0415039 16.3778 0.16881 16.6044 0.395417C16.831 0.622023 16.9583 0.929367 16.9583 1.24984V10.9165C16.9583 11.237 16.831 11.5443 16.6044 11.7709C16.3778 11.9975 16.0704 12.1248 15.75 12.1248C15.4295 12.1248 15.1222 11.9975 14.8956 11.7709C14.6689 11.5443 14.5416 11.237 14.5416 10.9165V4.16675L2.51872 16.1897C2.29083 16.4098 1.9856 16.5316 1.66878 16.5288C1.35196 16.5261 1.04889 16.399 0.82486 16.175C0.600825 15.9509 0.473746 15.6479 0.470993 15.331C0.46824 15.0142 0.590033 14.709 0.810141 14.4811L12.8331 2.45817H6.08331C5.76284 2.45817 5.45549 2.33086 5.22889 2.10426C5.00228 1.87765 4.87497 1.57031 4.87497 1.24984C4.87497 0.929367 5.00228 0.622023 5.22889 0.395417C5.45549 0.16881 5.76284 0.0415039 6.08331 0.0415039H15.75Z" fill="black"/>
</svg>
