<svg width="428" height="456" viewBox="0 0 428 456" fill="none" xmlns="http://www.w3.org/2000/svg">
<path d="M202.317 0.972753C208.211 0.972536 222.527 0.972753 222.527 0.972753C223.64 23.7938 232.406 56.6219 239 81.3159C242.382 93.9818 245.192 104.508 246.106 110.446C249.474 124.481 254.527 158.277 247.79 181.183C243.074 196.677 236.281 206.165 233.474 208.972C234.597 212.34 241.39 219.246 259.58 219.919C261.264 219.982 296.632 218.797 308.421 218.235L428 214.867L280.632 305.814L270.527 288.972C282.878 280.832 306.569 262.025 302.527 251.919C297.474 239.288 268.843 239.288 249.474 243.498C233.853 246.894 224.257 251.386 219.362 254.322C225.072 275.061 225.895 327.806 225.895 336.129C225.895 336.129 224.211 445.603 225.895 455.708C220 455.708 205.684 455.708 205.684 455.708C204.571 432.887 195.806 400.059 189.212 375.365C185.83 362.699 183.019 352.173 182.106 346.235C178.737 332.2 173.685 298.403 180.421 275.498C185.137 260.003 191.93 250.516 194.737 247.709C193.614 244.34 186.821 237.435 168.632 236.761C166.948 236.699 131.579 237.884 119.79 238.445L0.211426 241.814L147.579 150.867L157.685 167.709C145.334 175.849 121.643 194.656 125.685 204.761C130.737 217.393 159.369 217.393 178.737 213.182C194.359 209.786 203.954 205.295 208.85 202.359C203.139 181.619 202.317 128.874 202.317 120.551C202.317 120.551 204.001 11.0779 202.317 0.972753Z" fill="white"/>
</svg>
