<svg width="18" height="18" viewBox="0 0 18 18" fill="none" xmlns="http://www.w3.org/2000/svg">
<path d="M15 0C15.7956 0 16.5587 0.316071 17.1213 0.87868C17.6839 1.44129 18 2.20435 18 3V15C18 15.7956 17.6839 16.5587 17.1213 17.1213C16.5587 17.6839 15.7956 18 15 18H3C2.20435 18 1.44129 17.6839 0.87868 17.1213C0.316071 16.5587 0 15.7956 0 15V3C0 2.20435 0.316071 1.44129 0.87868 0.87868C1.44129 0.316071 2.20435 0 3 0H15ZM15 2H3C2.73478 2 2.48043 2.10536 2.29289 2.29289C2.10536 2.48043 2 2.73478 2 3V15C2 15.2652 2.10536 15.5196 2.29289 15.7071C2.48043 15.8946 2.73478 16 3 16H15C15.2652 16 15.5196 15.8946 15.7071 15.7071C15.8946 15.5196 16 15.2652 16 15V3C16 2.73478 15.8946 2.48043 15.7071 2.29289C15.5196 2.10536 15.2652 2 15 2ZM5 7C5.24493 7.00003 5.48134 7.08996 5.66437 7.25272C5.84741 7.41547 5.96434 7.63975 5.993 7.883L6 8V13C5.99972 13.2549 5.90212 13.5 5.72715 13.6854C5.55218 13.8707 5.31305 13.9822 5.05861 13.9972C4.80416 14.0121 4.55362 13.9293 4.35817 13.7657C4.16271 13.6021 4.0371 13.3701 4.007 13.117L4 13V8C4 7.73478 4.10536 7.48043 4.29289 7.29289C4.48043 7.10536 4.73478 7 5 7ZM8 6C8.23419 5.99996 8.46097 6.08213 8.6408 6.23216C8.82062 6.3822 8.94208 6.59059 8.984 6.821C9.18523 6.70431 9.39327 6.59979 9.607 6.508C10.274 6.223 11.273 6.066 12.175 6.349C12.648 6.499 13.123 6.779 13.475 7.256C13.79 7.681 13.96 8.198 13.994 8.779L14 9V13C13.9997 13.2549 13.9021 13.5 13.7272 13.6854C13.5522 13.8707 13.313 13.9822 13.0586 13.9972C12.8042 14.0121 12.5536 13.9293 12.3582 13.7657C12.1627 13.6021 12.0371 13.3701 12.007 13.117L12 13V9C12 8.67 11.92 8.516 11.868 8.445C11.7934 8.35215 11.6905 8.28615 11.575 8.257C11.227 8.147 10.726 8.205 10.393 8.347C9.893 8.561 9.435 8.897 9.123 9.208L9 9.34V13C8.99972 13.2549 8.90212 13.5 8.72715 13.6854C8.55218 13.8707 8.31305 13.9822 8.05861 13.9972C7.80416 14.0121 7.55362 13.9293 7.35817 13.7657C7.16271 13.6021 7.0371 13.3701 7.007 13.117L7 13V7C7 6.73478 7.10536 6.48043 7.29289 6.29289C7.48043 6.10536 7.73478 6 8 6ZM5 4C5.26522 4 5.51957 4.10536 5.70711 4.29289C5.89464 4.48043 6 4.73478 6 5C6 5.26522 5.89464 5.51957 5.70711 5.70711C5.51957 5.89464 5.26522 6 5 6C4.73478 6 4.48043 5.89464 4.29289 5.70711C4.10536 5.51957 4 5.26522 4 5C4 4.73478 4.10536 4.48043 4.29289 4.29289C4.48043 4.10536 4.73478 4 5 4Z" fill="#1E1E1E"/>
</svg>
