<svg width="64" height="68" viewBox="0 0 64 68" fill="none" xmlns="http://www.w3.org/2000/svg">
<path d="M29.9332 1.42469e-05C30.8062 -1.78087e-05 32.9265 1.42469e-05 32.9265 1.42469e-05C33.0914 3.37374 34.3896 8.22685 35.3662 11.8775C35.8671 13.7499 36.2834 15.306 36.4187 16.1839C36.9176 18.2588 37.6659 23.255 36.6681 26.6412C35.9697 28.9318 34.9636 30.3344 34.5478 30.7494C34.7141 31.2474 35.7202 32.2682 38.4142 32.3678C38.6636 32.377 43.9019 32.2018 45.648 32.1188L63.3585 31.6209L41.5322 45.0659L40.0356 42.5761C41.8648 41.3727 45.3736 38.5924 44.775 37.0985C44.0267 35.2311 39.7861 35.2311 36.9176 35.8536C34.6039 36.3556 33.1827 37.0196 32.4577 37.4537C33.3034 40.5197 33.4253 48.3172 33.4253 49.5476C33.4253 49.5476 33.1759 65.7315 33.4253 67.2254C32.5522 67.2254 30.432 67.2254 30.432 67.2254C30.2671 63.8517 28.9688 58.9986 27.9923 55.3479C27.4914 53.4755 27.0751 51.9194 26.9398 51.0415C26.4409 48.9666 25.6926 43.9704 26.6903 40.5842C27.3888 38.2936 28.3949 36.891 28.8106 36.476C28.6443 35.978 27.6382 34.9572 24.9442 34.8576C24.6948 34.8484 19.4565 35.0236 17.7104 35.1066L0 35.6046L21.8262 22.1595L23.3229 24.6493C21.4936 25.8527 17.9848 28.633 18.5835 30.1269C19.3318 31.9943 23.5723 31.9943 26.4409 31.3718C28.7546 30.8698 30.1757 30.2058 30.9008 29.7717C30.055 26.7057 29.9332 18.9082 29.9332 17.6778C29.9332 17.6778 30.1826 1.4939 29.9332 1.42469e-05Z" fill="#1E1E1E"/>
</svg>
